<svg width="18" height="19" viewBox="0 0 18 19" fill="none" xmlns="http://www.w3.org/2000/svg">
<path d="M9.15156 5.00781C11.6125 5.00781 13.6438 7.03906 13.6438 9.5C13.6438 12 11.6125 13.9922 9.15156 13.9922C6.65156 13.9922 4.65938 12 4.65938 9.5C4.65938 7.03906 6.65156 5.00781 9.15156 5.00781ZM9.15156 12.4297C10.7531 12.4297 12.0422 11.1406 12.0422 9.5C12.0422 7.89844 10.7531 6.60938 9.15156 6.60938C7.51094 6.60938 6.22188 7.89844 6.22188 9.5C6.22188 11.1406 7.55 12.4297 9.15156 12.4297ZM14.8547 4.85156C14.8547 5.4375 14.3859 5.90625 13.8 5.90625C13.2141 5.90625 12.7453 5.4375 12.7453 4.85156C12.7453 4.26562 13.2141 3.79688 13.8 3.79688C14.3859 3.79688 14.8547 4.26562 14.8547 4.85156ZM17.8234 5.90625C17.9016 7.35156 17.9016 11.6875 17.8234 13.1328C17.7453 14.5391 17.4328 15.75 16.4172 16.8047C15.4016 17.8203 14.1516 18.1328 12.7453 18.2109C11.3 18.2891 6.96406 18.2891 5.51875 18.2109C4.1125 18.1328 2.90156 17.8203 1.84688 16.8047C0.83125 15.75 0.51875 14.5391 0.440625 13.1328C0.3625 11.6875 0.3625 7.35156 0.440625 5.90625C0.51875 4.5 0.83125 3.25 1.84688 2.23438C2.90156 1.21875 4.1125 0.90625 5.51875 0.828125C6.96406 0.75 11.3 0.75 12.7453 0.828125C14.1516 0.90625 15.4016 1.21875 16.4172 2.23438C17.4328 3.25 17.7453 4.5 17.8234 5.90625ZM15.9484 14.6562C16.4172 13.5234 16.3 10.7891 16.3 9.5C16.3 8.25 16.4172 5.51562 15.9484 4.34375C15.6359 3.60156 15.05 2.97656 14.3078 2.70312C13.1359 2.23438 10.4016 2.35156 9.15156 2.35156C7.8625 2.35156 5.12813 2.23438 3.99531 2.70312C3.21406 3.01562 2.62813 3.60156 2.31563 4.34375C1.84688 5.51562 1.96406 8.25 1.96406 9.5C1.96406 10.7891 1.84688 13.5234 2.31563 14.6562C2.62813 15.4375 3.21406 16.0234 3.99531 16.3359C5.12813 16.8047 7.8625 16.6875 9.15156 16.6875C10.4016 16.6875 13.1359 16.8047 14.3078 16.3359C15.05 16.0234 15.675 15.4375 15.9484 14.6562Z" fill="#383838"/>
</svg>
